<svg xmlns="http://www.w3.org/2000/svg" width="99.84" height="104.302" viewBox="0 0 99.84 104.302">
  <path id="Complete_Convenience" data-name="Complete Convenience" d="M546.734,439.615h-13.5v-2.379a2.106,2.106,0,1,0-4.212,0v2.379h-12.38v-2.379a2.106,2.106,0,1,0-4.212,0v2.379h-51.92a2.106,2.106,0,0,0-2.114,2.106v41.26l-8.637,7.417A2.121,2.121,0,0,0,449,492v37.275a2.121,2.121,0,0,0,.758,1.6l9.372,8.054a2.136,2.136,0,0,0,1.379.508h86.225a2.106,2.106,0,0,0,2.106-2.106v-95.6a2.1,2.1,0,0,0-2.106-2.106Zm-2.106,77.126H522.02V503.1h22.608ZM453.235,528.3V492.967l8.054-6.91h53.246a2.106,2.106,0,1,0,0-4.212H501.912V471.132a2.106,2.106,0,1,0-4.212,0v10.713H462.637V443.828h35.086V454.54a2.106,2.106,0,0,0,4.212,0V443.828h10.516v2.379a2.106,2.106,0,0,0,4.212,0v-2.379h12.38v2.379a2.106,2.106,0,0,0,4.212,0v-2.379H544.62v38.018H531.127a2.106,2.106,0,1,0,0,4.212h13.5v12.88H519.914a2.114,2.114,0,0,0-2.106,2.114v34.192H489.631v-34.7a2.114,2.114,0,0,0-4.22,0V535.22H461.289Zm68.785,6.917V520.954h22.608V535.22Z" transform="translate(-449 -435.13)" fill="#707070"/>
</svg>
