<svg xmlns="http://www.w3.org/2000/svg" xmlns:xlink="http://www.w3.org/1999/xlink" width="188" height="78.231" viewBox="0 0 188 78.231">
  <defs>
    <clipPath id="clip-path">
      <rect id="Rectangle_16" data-name="Rectangle 16" width="78.231" height="78.231" fill="#fff"/>
    </clipPath>
  </defs>
  <g id="Group_44" data-name="Group 44" transform="translate(-796 -376)">
    <g id="Group_43" data-name="Group 43" transform="translate(36 -698)">
      <text id="Flats" transform="translate(864 1144)" fill="#fff" font-size="20" font-family="Heebo-Regular, Heebo" letter-spacing="0.33em"><tspan x="0" y="0">FLATS</tspan></text>
      <text id="_144_" data-name="144 " transform="translate(864 1117)" fill="#fff" font-size="32" font-family="Heebo-Regular, Heebo"><tspan x="0" y="0">144 </tspan></text>
      <g id="Group_35" data-name="Group 35" transform="translate(760 1074)">
        <g id="Group_34" data-name="Group 34" clip-path="url(#clip-path)">
          <path id="Path_149" data-name="Path 149" d="M76.651,50.047h-7.9V18.164l7.2,3.6a1.58,1.58,0,1,0,1.413-2.827L39.823.166a1.583,1.583,0,0,0-1.414,0L.874,18.934a1.58,1.58,0,1,0,1.414,2.827l7.195-3.6V50.047h-7.9A1.581,1.581,0,0,0,0,51.627V76.65a1.581,1.581,0,0,0,1.581,1.58h75.07a1.581,1.581,0,0,0,1.58-1.58V51.627a1.581,1.581,0,0,0-1.58-1.58M12.644,40.7H52.132V65.587H12.644Zm42.65,0H65.588V65.587H55.294ZM39.115,3.348,65.588,16.583V37.535H12.644V16.583ZM75.071,75.07H3.161V53.207H9.483V67.168a1.581,1.581,0,0,0,1.58,1.58H67.168a1.581,1.581,0,0,0,1.58-1.58V53.207h6.322Z" transform="translate(0 0)" fill="#fff"/>
          <path id="Path_150" data-name="Path 150" d="M52.335,41.634H69.721a1.58,1.58,0,0,0,1.58-1.58V30.11a1.58,1.58,0,0,0-1.58-1.58H52.335a1.581,1.581,0,0,0-1.58,1.58v9.945a1.581,1.581,0,0,0,1.58,1.58m1.581-9.944H68.14v6.783H53.916Z" transform="translate(-21.912 -12.317)" fill="#fff"/>
        </g>
      </g>
    </g>
  </g>
</svg>
