<svg xmlns="http://www.w3.org/2000/svg" xmlns:xlink="http://www.w3.org/1999/xlink" width="283.763" height="94.344" viewBox="0 0 283.763 94.344">
  <defs>
    <clipPath id="clip-path">
      <rect id="Rectangle_18" data-name="Rectangle 18" width="73.927" height="84.385" fill="#fff"/>
    </clipPath>
  </defs>
  <g id="Group_46" data-name="Group 46" transform="translate(-759.237 -1319.656)">
    <g id="Group_42" data-name="Group 42" transform="translate(-679 964)">
      <text id="early_possession" data-name="early
possession" transform="translate(1543 417)" fill="#fff" font-size="20" font-family="Heebo-Regular, Heebo" letter-spacing="0.33em"><tspan x="0" y="0">EARLY</tspan><tspan x="0" y="25">POSSESSION</tspan></text>
      <text id="_2023" data-name="2023" transform="translate(1543 390)" fill="#fff" font-size="32" font-family="Heebo-Regular, Heebo"><tspan x="0" y="0">2023</tspan></text>
    </g>
    <g id="Group_39" data-name="Group 39" transform="translate(759.237 1319.656)">
      <g id="Group_38" data-name="Group 38" clip-path="url(#clip-path)">
        <path id="Path_153" data-name="Path 153" d="M50.46,32.989A25.749,25.749,0,1,0,23.451,51.4,25.759,25.759,0,1,0,50.46,32.989M2.553,25.756a23.2,23.2,0,1,1,23.2,23.2,23.228,23.228,0,0,1-23.2-23.2M48.171,81.831A23.155,23.155,0,0,1,26.107,51.494a25.783,25.783,0,0,0,23.478-16,23.188,23.188,0,0,1-1.415,46.334" transform="translate(0)" fill="#fff"/>
        <path id="Path_154" data-name="Path 154" d="M78.145,141.488l-1.805,1.805a16.1,16.1,0,0,0,22.748,0l-1.805-1.805a13.546,13.546,0,0,1-19.138,0" transform="translate(-39.545 -73.292)" fill="#fff"/>
        <path id="Path_155" data-name="Path 155" d="M112.321,104.576A5.331,5.331,0,0,0,107,109.9h2.554a2.772,2.772,0,0,1,5.543,0h2.553a5.331,5.331,0,0,0-5.326-5.324" transform="translate(-55.424 -54.171)" fill="#fff"/>
        <path id="Path_156" data-name="Path 156" d="M76.11,107.129a2.775,2.775,0,0,1,2.773,2.771h2.554a5.327,5.327,0,0,0-10.653,0h2.554a2.775,2.775,0,0,1,2.773-2.771" transform="translate(-36.666 -54.171)" fill="#fff"/>
        <path id="Path_157" data-name="Path 157" d="M52.587,75.092l-1.806-1.805a13.532,13.532,0,0,1-19.135,0l-1.806,1.805a16.1,16.1,0,0,0,22.746,0" transform="translate(-15.458 -37.963)" fill="#fff"/>
        <path id="Path_158" data-name="Path 158" d="M65.82,38.923A2.774,2.774,0,0,1,68.59,41.7h2.554a5.325,5.325,0,1,0-10.65,0h2.553a2.777,2.777,0,0,1,2.773-2.773" transform="translate(-31.336 -18.839)" fill="#fff"/>
        <path id="Path_159" data-name="Path 159" d="M29.61,38.923A2.774,2.774,0,0,1,32.38,41.7h2.553a5.325,5.325,0,1,0-10.65,0h2.554a2.777,2.777,0,0,1,2.773-2.773" transform="translate(-12.579 -18.839)" fill="#fff"/>
      </g>
    </g>
  </g>
</svg>
