<svg xmlns="http://www.w3.org/2000/svg" width="51.842" height="51.842" viewBox="0 0 51.842 51.842">
  <path id="_021-facebook" data-name="021-facebook" d="M43.395,0H7.448A7.457,7.457,0,0,0,0,7.448V43.395a7.457,7.457,0,0,0,7.448,7.448H22.442V32.869H16.484V23.932h5.958V17.874a8.947,8.947,0,0,1,8.937-8.937h9.036v8.937H31.379v6.057h9.036l-1.49,8.937H31.379V50.842H43.395a7.457,7.457,0,0,0,7.448-7.448V7.448A7.457,7.457,0,0,0,43.395,0Zm0,0" transform="translate(0.5 0.5)" fill="none" stroke="#707070" stroke-width="1"/>
</svg>
