<svg xmlns="http://www.w3.org/2000/svg" width="51.389" height="51.389" viewBox="0 0 51.389 51.389">
  <g id="_025-instagram" data-name="025-instagram" transform="translate(0.5 0.5)">
    <path id="Path_99" data-name="Path 99" d="M43.008,0H7.381A7.39,7.39,0,0,0,0,7.381V43.008a7.39,7.39,0,0,0,7.381,7.381H43.008a7.39,7.39,0,0,0,7.381-7.381V7.381A7.39,7.39,0,0,0,43.008,0ZM25.293,38.382A13.286,13.286,0,1,1,38.579,25.1,13.3,13.3,0,0,1,25.293,38.382Zm14.762-23.62a4.429,4.429,0,1,1,4.429-4.429A4.434,4.434,0,0,1,40.055,14.762Zm0,0" fill="none" stroke="#707070" stroke-width="1"/>
  </g>
</svg>
