<svg xmlns="http://www.w3.org/2000/svg" width="42.788" height="67.597" viewBox="0 0 42.788 67.597">
  <g id="Group_64" data-name="Group 64" transform="translate(-321.928 -4029.984)">
    <path id="Path_109" data-name="Path 109" d="M121.383,67.8C117.345,62.292,114,57.218,114,50.894A20.915,20.915,0,0,1,134.794,30h.1a20.919,20.919,0,0,1,20.894,20.894c0,6.324-3.345,11.4-7.383,16.907L134.912,86.253Z" transform="translate(208.428 4000.484)" fill="none" stroke="#707070" stroke-miterlimit="10" stroke-width="1"/>
    <path id="Path_110" data-name="Path 110" d="M128.15,432.716l3.211-8.516h11.475l4.083,5.569s3.412-4.492,4.195-5.569h11.444l3.212,8.516Z" transform="translate(196.363 3664.365)" fill="none" stroke="#707070" stroke-miterlimit="10" stroke-width="1"/>
    <path id="Path_111" data-name="Path 111" d="M191.17,118.329a11.17,11.17,0,1,1,11.17-11.169A11.17,11.17,0,0,1,191.17,118.329Z" transform="translate(152.152 3944.217)" fill="none" stroke="#707070" stroke-miterlimit="10" stroke-width="1"/>
  </g>
</svg>
